{"title":"Everest.(2015).HDrip.1080p[)(]DD+ 5.1-(US).mkv","uid":13138113,"size":9388463935,"categoryP":"video","categoryS":"hd___movies","magnet":"?xt=urn:btih:bdba66233b05bafea5a7c6e1271daca4a223f3ed&amp;dn=Everest.%282015%29.HDrip.1080p%5B%29%28%5DDD%2B+5.1-%28US%29.mkv&amp;tr=udp%3A%2F%2Ftracker.leechers-paradise.org%3A6969&amp;tr=udp%3A%2F%2Fzer0day.ch%3A1337&amp;tr=udp%3A%2F%2Fopen.demonii.com%3A1337&amp;tr=udp%3A%2F%2Ftracker.coppersurfer.tk%3A6969&amp;tr=udp%3A%2F%2Fexodus.desync.com%3A6969","seeders":0,"leechers":0,"uploader":"Tyr3ll","files":1,"time":1451933268,"description":"At first, i wish you all a very happy new year 2016 with the best to come for each of us anyway.\r\nLove, Money, Job and much more...so.\r\nHappy new year to TPB !!!\r\nHappy to see you still alive !\r\nLong time to you !\r\nHappy to know that our three guys are now free as bird and hope they are still fine as well.\r\nMay this new year bringing us better things and news than the previous so.\r\n\r\nYours Sincerely \r\n\r\n\r\nEVEREST 2015\r\n2h 1min | Adventure, Biography, Drama\r\n\r\nSee imdb right here : \nhttp://www.imdb.com/title/tt2719848/\r\n\r\nTechnical job :\r\n\r\nHD rip by Master dubbing\r\nRe-encoded to H263.1080p-simple pass to mkv\r\nHD format as fit to screen (full screen ability)\r\nUpmixed simple AC3-5.1 to Dolby Digital plus 5.1\r\nLanguage : US English\r\nSub : same\r\n\r\nQuality : Normal/Good\r\n\r\nFinal size : 8,74 Go\r\n\r\n------------------------------------------------------------------\r\n\r\n\r\nSee below for complete details :\r\n\r\n\r\nGeneral\r\nUnique ID                      : N/A\r\nComplete name                  : Everest.(2015).HDrip.1080p[)(]DD+ 5.1-(US).mkv\r\nFormat                         : Matroska\r\nFormat version                 : Version 4 / Version 2\r\nFile size                      : 8.74 GiB\r\nDuration                       : 2h 1mn\r\nOverall bit rate               : 10.3 Mbps\r\nEncoded date                   : UTC 2016-01-04 14:31:47 / UTC 2016-01-04 14:31:47\r\nWriting application            : Lavf57.20.100\r\nWriting library                : Lavf57.20.100 / Lavf57.20.100\r\n\r\nVideo\r\nID                             : 1\r\nFormat                         : H.263\r\nCodec ID                       : V_MS/VFW/FOURCC / H263\r\nDuration                       : 2h 1mn\r\nBit rate                       : 9 357 Kbps\r\nWidth                          : 1 920 pixels\r\nHeight                         : 808 pixels\r\nDisplay aspect ratio           : 2.40:1\r\nFrame rate mode                : Constant\r\nFrame rate                     : 23.976 fps\r\nBit depth                      : 8 bits\r\nCompression mode               : Lossy\r\nBits/(Pixel*Frame)             : 0.252\r\nStream size                    : 7.92 GiB (91%)\r\nWriting library                : Lavc57.20.100 h263p\r\nLanguage                       : English\r\nDefault                        : Yes\r\nForced                         : No\r\nDURATION                       : 02:01:10.447000000\r\n\r\nAudio\r\nID                             : 2\r\nFormat                         : E-AC-3\r\nFormat/Info                    : Audio Coding 3\r\nFormat settings, Endianness    : Big\r\nCodec ID                       : A_EAC3\r\nDuration                       : 2h 1mn\r\nBit rate mode                  : Constant\r\nBit rate                       : 768 Kbps\r\nChannel(s)                     : 6 channels\r\nChannel positions              : Front: L C R, Side: L R, LFE\r\nSampling rate                  : 48.0 KHz\r\nFrame rate                     : 187.500 fps (256 spf)\r\nBit depth                      : 32 bits\r\nCompression mode               : Lossy\r\nStream size                    : 666 MiB (7%)\r\nWriting library                : Lavc57.20.100 eac3\r\nLanguage                       : English\r\nDefault                        : Yes\r\nForced                         : No\r\nDURATION                       : 02:01:10.496000000\r\n\r\nText #1\r\nID                             : 3\r\nFormat                         : VobSub\r\nCodec ID                       : S_VOBSUB\r\nCodec ID/Info                  : Picture based subtitle format used on DVDs\r\nLanguage                       : English\r\nDefault                        : Yes\r\nForced                         : No\r\nDURATION                       : 01:51:49.908000000\r\n\r\nText #2\r\nID                             : 4\r\nFormat                         : VobSub\r\nCodec ID                       : S_VOBSUB\r\nCodec ID/Info                  : Picture based subtitle format used on DVDs\r\nLanguage                       : English\r\nDefault                        : No\r\nForced                         : No\r\nDURATION                       : 01:50:02.101000000\r\n\r\n\r\n\r\nPlease, seed with me as long as you can for the other peers.\r\n\r\nTy\r\n\r\nenjoy and regards","torrent":{"xt":"urn:btih:bdba66233b05bafea5a7c6e1271daca4a223f3ed","amp;dn":"Everest.%282015%29.HDrip.1080p%5B%29%28%5DDD%2B+5.1-%28US%29.mkv","amp;tr":["udp%3A%2F%2Ftracker.leechers-paradise.org%3A6969","udp%3A%2F%2Fzer0day.ch%3A1337","udp%3A%2F%2Fopen.demonii.com%3A1337","udp%3A%2F%2Ftracker.coppersurfer.tk%3A6969","udp%3A%2F%2Fexodus.desync.com%3A6969"],"infoHash":"bdba66233b05bafea5a7c6e1271daca4a223f3ed","infoHashBuffer":{"type":"Buffer","data":[189,186,102,35,59,5,186,254,165,167,198,225,39,29,172,164,162,35,243,237]},"announce":[],"urlList":[]}}